<svg width="70" height="70" viewBox="0 0 40 36" fill="none" xmlns="http://www.w3.org/2000/svg">
<path d="M2.23174 35.2503H37.7476C39.2234 35.2503 40.1434 33.6595 39.4151 32.3753L21.6476 1.70861C21.4807 1.41621 21.2394 1.17314 20.9482 1.00408C20.6571 0.835019 20.3264 0.745972 19.9897 0.745972C19.653 0.745972 19.3223 0.835019 19.0311 1.00408C18.7399 1.17314 18.4987 1.41621 18.3317 1.70861L0.564241 32.3753C-0.164092 33.6595 0.755908 35.2503 2.23174 35.2503ZM19.9992 23.7503C18.9451 23.7503 18.0826 22.8878 18.0826 21.8336V16.0836C18.0826 15.0294 18.9451 14.1669 19.9992 14.1669C21.0534 14.1669 21.9159 15.0294 21.9159 16.0836V21.8336C21.9159 22.8878 21.0534 23.7503 19.9992 23.7503ZM21.9159 27.5836C21.9159 28.6378 21.0534 29.5003 19.9992 29.5003C18.9451 29.5003 18.0826 28.6378 18.0826 27.5836C18.0826 26.5294 18.9451 25.6669 19.9992 25.6669C21.0534 25.6669 21.9159 26.5294 21.9159 27.5836Z" fill="#F7271A"/>
</svg>
